<?xml version="1.0" encoding="UTF-8"?>
<svg width="63px" height="59px" viewBox="0 0 63 59" version="1.1" xmlns="http://www.w3.org/2000/svg" xmlns:xlink="http://www.w3.org/1999/xlink">
    <!-- Generator: Sketch 54.1 (76490) - https://sketchapp.com -->
    <title>‘’</title>
    <desc>Created with Sketch.</desc>
    <g id="Page-1" stroke="none" stroke-width="1" fill="none" fill-rule="evenodd" opacity="0.699999988">
        <g id="Saas-Landing-page" transform="translate(-713.000000, -4930.000000)" fill="#FFFFFF">
            <g id="Group-30" transform="translate(-175.000000, 4568.000000)">
                <g id="Group-29" transform="translate(344.000000, 126.000000)">
                    <g id="Group-26" transform="translate(544.000000, 236.000000)">
                        <g id="Group-24">
                            <path d="M25.3275558,0.0623678647 L26.8213911,2.05813953 C10.1402304,14.0327696 11.6340657,29.2505285 15.6176264,29.7494715 C19.1032421,30.2484144 22.3398852,31.2463002 25.3275558,33.9904863 C31.0539244,39.7283298 31.302897,48.9587738 25.5765284,54.6966173 C19.8501598,60.4344609 10.6381755,60.4344609 4.91180687,54.6966173 C-3.80223231,45.9651163 0.430301004,28.2526427 7.1525598,17.2758985 C10.3892029,12.2864693 14.3727637,5.80021142 25.3275558,0.0623678647 Z M37.6724442,58.9376321 L36.1786089,56.9418605 C52.8597696,44.9672304 51.3659343,29.7494715 47.3823736,29.2505285 C43.8967579,28.7515856 40.6601148,27.7536998 37.6724442,25.0095137 C31.9460756,19.2716702 31.697103,10.0412262 37.4234716,4.30338266 C43.1498402,-1.43446089 52.3618245,-1.43446089 58.0881931,4.30338266 C66.8022323,13.0348837 62.569699,30.7473573 55.8474402,41.7241015 C52.6107971,46.7135307 48.6272363,53.1997886 37.6724442,58.9376321 Z" id="‘’"></path>
                        </g>
                    </g>
                </g>
            </g>
        </g>
    </g>
</svg>